<svg xmlns="http://www.w3.org/2000/svg" width="570" height="300" viewBox="0 0 570 300" role="img" aria-labelledby="title desc">
  <title id="title">pygount summary for the TCRBAC.NET source tree</title>
  <desc id="desc">A blue terminal-style pygount summary table excluding generated directories.</desc>
  <rect width="570" height="300" fill="#0b3fd8"/>
  <g fill="none" stroke="#ffffff" stroke-width="2">
    <rect x="7" y="5" width="560" height="290"/>
    <line x1="7" y1="39" x2="567" y2="39"/>
    <line x1="7" y1="257" x2="567" y2="257"/>
    <line x1="134" y1="5" x2="134" y2="295"/>
    <line x1="206" y1="5" x2="206" y2="295"/>
    <line x1="278" y1="5" x2="278" y2="295"/>
    <line x1="350" y1="5" x2="350" y2="295"/>
    <line x1="413" y1="5" x2="413" y2="295"/>
    <line x1="503" y1="5" x2="503" y2="295"/>
  </g>
  <g font-family="Consolas, 'Courier New', monospace" font-size="14" fill="#ffffff">
    <text x="20" y="26">Language</text>
    <text x="190" y="26" text-anchor="end">Files</text>
    <text x="262" y="26" text-anchor="end">%</text>
    <text x="334" y="26" text-anchor="end">Code</text>
    <text x="397" y="26" text-anchor="end">%</text>
    <text x="488" y="26" text-anchor="end">Comment</text>
    <text x="551" y="26" text-anchor="end">%</text>

    <text x="20" y="61">YAML</text><text x="190" y="61" text-anchor="end">33</text><text x="262" y="61" text-anchor="end">30.3</text><text x="334" y="61" text-anchor="end">10561</text><text x="397" y="61" text-anchor="end">98.8</text><text x="488" y="61" text-anchor="end">29</text><text x="551" y="61" text-anchor="end">0.3</text>
    <text x="20" y="78">C#</text><text x="190" y="78" text-anchor="end">22</text><text x="262" y="78" text-anchor="end">20.2</text><text x="334" y="78" text-anchor="end">794</text><text x="397" y="78" text-anchor="end">47.5</text><text x="488" y="78" text-anchor="end">268</text><text x="551" y="78" text-anchor="end">16.0</text>
    <text x="20" y="95">HTML</text><text x="190" y="95" text-anchor="end">2</text><text x="262" y="95" text-anchor="end">1.8</text><text x="334" y="95" text-anchor="end">727</text><text x="397" y="95" text-anchor="end">80.5</text><text x="488" y="95" text-anchor="end">2</text><text x="551" y="95" text-anchor="end">0.2</text>
    <text x="20" y="112">PowerShell</text><text x="190" y="112" text-anchor="end">3</text><text x="262" y="112" text-anchor="end">2.8</text><text x="334" y="112" text-anchor="end">424</text><text x="397" y="112" text-anchor="end">57.8</text><text x="488" y="112" text-anchor="end">0</text><text x="551" y="112" text-anchor="end">0.0</text>
    <text x="20" y="129">JSON</text><text x="190" y="129" text-anchor="end">9</text><text x="262" y="129" text-anchor="end">8.3</text><text x="334" y="129" text-anchor="end">242</text><text x="397" y="129" text-anchor="end">46.5</text><text x="488" y="129" text-anchor="end">0</text><text x="551" y="129" text-anchor="end">0.0</text>
    <text x="20" y="146">CSS+Lasso</text><text x="190" y="146" text-anchor="end">2</text><text x="262" y="146" text-anchor="end">1.8</text><text x="334" y="146" text-anchor="end">182</text><text x="397" y="146" text-anchor="end">74.0</text><text x="488" y="146" text-anchor="end">0</text><text x="551" y="146" text-anchor="end">0.0</text>
    <text x="20" y="163">Cheetah</text><text x="190" y="163" text-anchor="end">1</text><text x="262" y="163" text-anchor="end">0.9</text><text x="334" y="163" text-anchor="end">146</text><text x="397" y="163" text-anchor="end">91.2</text><text x="488" y="163" text-anchor="end">0</text><text x="551" y="163" text-anchor="end">0.0</text>
    <text x="20" y="180">JavaScript</text><text x="190" y="180" text-anchor="end">1</text><text x="262" y="180" text-anchor="end">0.9</text><text x="334" y="180" text-anchor="end">48</text><text x="397" y="180" text-anchor="end">66.7</text><text x="488" y="180" text-anchor="end">0</text><text x="551" y="180" text-anchor="end">0.0</text>
    <text x="20" y="197">XML</text><text x="190" y="197" text-anchor="end">2</text><text x="262" y="197" text-anchor="end">1.8</text><text x="334" y="197" text-anchor="end">47</text><text x="397" y="197" text-anchor="end">50.5</text><text x="488" y="197" text-anchor="end">41</text><text x="551" y="197" text-anchor="end">44.1</text>
    <text x="20" y="214">Markdown</text><text x="190" y="214" text-anchor="end">20</text><text x="262" y="214" text-anchor="end">18.3</text><text x="334" y="214" text-anchor="end">0</text><text x="397" y="214" text-anchor="end">0.0</text><text x="488" y="214" text-anchor="end">370</text><text x="551" y="214" text-anchor="end">36.1</text>
    <text x="20" y="231">__unknown__</text><text x="190" y="231" text-anchor="end">13</text><text x="262" y="231" text-anchor="end">11.9</text><text x="334" y="231" text-anchor="end">0</text><text x="397" y="231" text-anchor="end">0.0</text><text x="488" y="231" text-anchor="end">0</text><text x="551" y="231" text-anchor="end">0.0</text>
    <text x="20" y="248">__binary__</text><text x="190" y="248" text-anchor="end">1</text><text x="262" y="248" text-anchor="end">0.9</text><text x="334" y="248" text-anchor="end">0</text><text x="397" y="248" text-anchor="end">0.0</text><text x="488" y="248" text-anchor="end">0</text><text x="551" y="248" text-anchor="end">0.0</text>

    <text x="20" y="281">Sum</text><text x="190" y="281" text-anchor="end">109</text><text x="262" y="281" text-anchor="end">100.0</text><text x="334" y="281" text-anchor="end">13171</text><text x="397" y="281" text-anchor="end">81.7</text><text x="488" y="281" text-anchor="end">710</text><text x="551" y="281" text-anchor="end">4.4</text>
  </g>
</svg>
