<svg xmlns="http://www.w3.org/2000/svg" width="698" height="442" viewBox="0 0 698 442" role="img" aria-labelledby="title desc">
  <title id="title">pygount summary</title>
  <desc id="desc">A blue terminal pygount summary table showing language file counts and code statistics.</desc>
  <rect width="698" height="442" fill="#0b3bd8"/>
  <text x="7" y="14" fill="#ffffff" font-family="Consolas, 'Courier New', monospace" font-size="14">PS D:\tcrbac.net&gt; pygount --format=summary</text>
  <g transform="translate(13 28)" font-family="Consolas, 'Courier New', monospace" font-size="14" fill="#ffffff">
    <rect x="0" y="0" width="676" height="409" fill="none" stroke="#ffffff" stroke-width="2"/>
    <g stroke="#ffffff" stroke-width="2">
      <line x1="0" y1="34" x2="676" y2="34"/>
      <line x1="0" y1="374" x2="676" y2="374"/>
      <line x1="234" y1="0" x2="234" y2="409"/>
      <line x1="307" y1="0" x2="307" y2="409"/>
      <line x1="378" y1="0" x2="378" y2="409"/>
      <line x1="451" y1="0" x2="451" y2="409"/>
      <line x1="513" y1="0" x2="513" y2="409"/>
      <line x1="603" y1="0" x2="603" y2="409"/>
    </g>
    <g>
      <text x="13" y="20">Language</text>
      <text x="247" y="20">Files</text>
      <text x="324" y="20">%</text>
      <text x="399" y="20">Code</text>
      <text x="477" y="20">%</text>
      <text x="526" y="20">Comment</text>
      <text x="656" y="20">%</text>
    </g>
    <g>
      <text x="13" y="54">HTML</text><text x="265" y="54">108</text><text x="326" y="54">14.5</text><text x="390" y="54">18086</text><text x="463" y="54">76.1</text><text x="568" y="54">34</text><text x="635" y="54">0.1</text>
      <text x="13" y="71">YAML</text><text x="273" y="71">36</text><text x="334" y="71">4.8</text><text x="390" y="71">13434</text><text x="463" y="71">99.0</text><text x="568" y="71">32</text><text x="635" y="71">0.2</text>
      <text x="13" y="88">JSON</text><text x="273" y="88">28</text><text x="334" y="88">3.7</text><text x="398" y="88">2413</text><text x="463" y="88">39.6</text><text x="576" y="88">0</text><text x="635" y="88">0.0</text>
      <text x="13" y="105">JavaScript+Genshi Text</text><text x="273" y="105">38</text><text x="334" y="105">5.1</text><text x="406" y="105">994</text><text x="463" y="105">44.9</text><text x="568" y="105">77</text><text x="635" y="105">3.5</text>
      <text x="13" y="122">C#</text><text x="273" y="122">29</text><text x="334" y="122">3.9</text><text x="406" y="122">852</text><text x="463" y="122">47.5</text><text x="560" y="122">315</text><text x="629" y="122">17.6</text>
      <text x="13" y="139">JavaScript</text><text x="273" y="139">67</text><text x="334" y="139">9.0</text><text x="406" y="139">840</text><text x="463" y="139">41.3</text><text x="560" y="139">833</text><text x="629" y="139">40.9</text>
      <text x="13" y="156">CSS+Lasso</text><text x="281" y="156">3</text><text x="334" y="156">0.4</text><text x="406" y="156">723</text><text x="463" y="156">66.8</text><text x="568" y="156">73</text><text x="635" y="156">6.7</text>
      <text x="13" y="173">XML</text><text x="281" y="173">3</text><text x="334" y="173">0.4</text><text x="406" y="173">226</text><text x="463" y="173">83.1</text><text x="568" y="173">41</text><text x="629" y="173">15.1</text>
      <text x="13" y="190">JavaScript+Django/Jinja</text><text x="281" y="190">2</text><text x="334" y="190">0.3</text><text x="406" y="190">132</text><text x="463" y="190">21.9</text><text x="568" y="190">20</text><text x="635" y="190">3.3</text>
      <text x="13" y="207">JavaScript+PHP</text><text x="281" y="207">3</text><text x="334" y="207">0.4</text><text x="406" y="207">106</text><text x="463" y="207">50.7</text><text x="568" y="207">36</text><text x="629" y="207">17.2</text>
      <text x="13" y="224">PowerShell</text><text x="281" y="224">2</text><text x="334" y="224">0.3</text><text x="414" y="224">58</text><text x="463" y="224">63.0</text><text x="576" y="224">0</text><text x="635" y="224">0.0</text>
      <text x="13" y="241">JavaScript+Ruby</text><text x="281" y="241">1</text><text x="334" y="241">0.1</text><text x="414" y="241">52</text><text x="463" y="241">60.5</text><text x="576" y="241">1</text><text x="635" y="241">1.2</text>
      <text x="13" y="258">Markdown</text><text x="273" y="258">20</text><text x="334" y="258">2.7</text><text x="422" y="258">0</text><text x="471" y="258">0.0</text><text x="560" y="258">307</text><text x="629" y="258">35.0</text>
      <text x="13" y="275">Text only</text><text x="281" y="275">4</text><text x="334" y="275">0.5</text><text x="422" y="275">0</text><text x="471" y="275">0.0</text><text x="560" y="275">109</text><text x="621" y="275">100.0</text>
      <text x="13" y="292">__unknown__</text><text x="265" y="292">140</text><text x="326" y="292">18.7</text><text x="422" y="292">0</text><text x="471" y="292">0.0</text><text x="576" y="292">0</text><text x="635" y="292">0.0</text>
      <text x="13" y="309">__generated__</text><text x="281" y="309">2</text><text x="334" y="309">0.3</text><text x="422" y="309">0</text><text x="471" y="309">0.0</text><text x="576" y="309">0</text><text x="635" y="309">0.0</text>
      <text x="13" y="326">__empty__</text><text x="281" y="326">1</text><text x="334" y="326">0.1</text><text x="422" y="326">0</text><text x="471" y="326">0.0</text><text x="576" y="326">0</text><text x="635" y="326">0.0</text>
      <text x="13" y="343">__duplicate__</text><text x="265" y="343">186</text><text x="326" y="343">24.9</text><text x="422" y="343">0</text><text x="471" y="343">0.0</text><text x="576" y="343">0</text><text x="635" y="343">0.0</text>
      <text x="13" y="360">__binary__</text><text x="273" y="360">74</text><text x="334" y="360">9.9</text><text x="422" y="360">0</text><text x="471" y="360">0.0</text><text x="576" y="360">0</text><text x="635" y="360">0.0</text>
      <text x="13" y="395">Sum</text><text x="265" y="395">747</text><text x="319" y="395">100.0</text><text x="390" y="395">37916</text><text x="463" y="395">71.8</text><text x="552" y="395">1878</text><text x="635" y="395">3.6</text>
    </g>
  </g>
</svg>
